<mxfile host="app.diagrams.net" agent="Mozilla/5.0 (Windows NT 10.0; Win64; x64) AppleWebKit/537.36 (KHTML, like Gecko) Chrome/131.0.0.0 Safari/537.36" version="25.0.3">
  <diagram name="Side-1" id="paFMWZ_QoS3r9pQ7KjTz">
    <mxGraphModel dx="794" dy="492" grid="0" gridSize="10" guides="1" tooltips="1" connect="1" arrows="1" fold="1" page="0" pageScale="1" pageWidth="827" pageHeight="1169" math="0" shadow="0">
      <root>
        <mxCell id="0" />
        <mxCell id="1" parent="0" />
        <mxCell id="tp1WzhVr1qO6GO8mGSLT-2" value="" style="verticalAlign=top;align=left;spacingTop=8;spacingLeft=2;spacingRight=12;shape=cube;size=20;direction=east;fontStyle=4;html=1;whiteSpace=wrap;fillColor=#dae8fc;strokeColor=#6c8ebf;" parent="1" vertex="1">
          <mxGeometry x="40" y="200" width="160" height="120" as="geometry" />
        </mxCell>
        <mxCell id="tp1WzhVr1qO6GO8mGSLT-3" value="Client" style="text;align=center;fontStyle=1;verticalAlign=middle;spacingLeft=3;spacingRight=3;strokeColor=none;rotatable=0;points=[[0,0.5],[1,0.5]];portConstraint=eastwest;html=1;" parent="1" vertex="1">
          <mxGeometry x="90" y="240" width="80" height="26" as="geometry" />
        </mxCell>
        <mxCell id="tp1WzhVr1qO6GO8mGSLT-4" value="Chirp! Webbrowser" style="text;align=center;fontStyle=1;verticalAlign=middle;spacingLeft=3;spacingRight=3;strokeColor=#666666;rotatable=0;points=[[0,0.5],[1,0.5]];portConstraint=eastwest;html=1;fillColor=#f5f5f5;fontColor=#333333;" parent="1" vertex="1">
          <mxGeometry x="72.5" y="266" width="115" height="26" as="geometry" />
        </mxCell>
        <mxCell id="tp1WzhVr1qO6GO8mGSLT-7" value="" style="verticalAlign=top;align=left;spacingTop=8;spacingLeft=2;spacingRight=12;shape=cube;size=20;direction=east;fontStyle=4;html=1;whiteSpace=wrap;fillColor=#dae8fc;strokeColor=#6c8ebf;" parent="1" vertex="1">
          <mxGeometry x="320" y="200" width="160" height="120" as="geometry" />
        </mxCell>
        <mxCell id="tp1WzhVr1qO6GO8mGSLT-8" value="Azure App Service" style="text;align=center;fontStyle=1;verticalAlign=middle;spacingLeft=3;spacingRight=3;rotatable=0;points=[[0,0.5],[1,0.5]];portConstraint=eastwest;html=1;" parent="1" vertex="1">
          <mxGeometry x="348" y="240" width="124" height="26" as="geometry" />
        </mxCell>
        <mxCell id="tp1WzhVr1qO6GO8mGSLT-9" value="Chirp.Web" style="text;align=center;fontStyle=1;verticalAlign=middle;spacingLeft=3;spacingRight=3;strokeColor=#666666;rotatable=0;points=[[0,0.5],[1,0.5]];portConstraint=eastwest;html=1;fillColor=#f5f5f5;fontColor=#333333;" parent="1" vertex="1">
          <mxGeometry x="372.5" y="266" width="75" height="26" as="geometry" />
        </mxCell>
        <mxCell id="tp1WzhVr1qO6GO8mGSLT-1" value="" style="shape=datastore;whiteSpace=wrap;html=1;fillColor=#dae8fc;strokeColor=#6c8ebf;" parent="1" vertex="1">
          <mxGeometry x="320" y="360" width="160" height="120" as="geometry" />
        </mxCell>
        <mxCell id="tp1WzhVr1qO6GO8mGSLT-13" value="SQLite Database" style="text;align=center;fontStyle=1;verticalAlign=middle;spacingLeft=3;spacingRight=3;strokeColor=none;rotatable=0;points=[[0,0.5],[1,0.5]];portConstraint=eastwest;html=1;" parent="1" vertex="1">
          <mxGeometry x="338" y="407" width="124" height="26" as="geometry" />
        </mxCell>
        <mxCell id="tp1WzhVr1qO6GO8mGSLT-14" value="chat.db" style="text;align=center;fontStyle=1;verticalAlign=middle;spacingLeft=3;spacingRight=3;strokeColor=#666666;rotatable=0;points=[[0,0.5],[1,0.5]];portConstraint=eastwest;html=1;fillColor=#f5f5f5;fontColor=#333333;" parent="1" vertex="1">
          <mxGeometry x="369" y="433" width="62" height="26" as="geometry" />
        </mxCell>
        <mxCell id="tp1WzhVr1qO6GO8mGSLT-18" value="" style="endArrow=classic;html=1;rounded=0;entryX=-0.002;entryY=0.499;entryDx=0;entryDy=0;entryPerimeter=0;" parent="1" target="tp1WzhVr1qO6GO8mGSLT-7" edge="1">
          <mxGeometry width="50" height="50" relative="1" as="geometry">
            <mxPoint x="200" y="260" as="sourcePoint" />
            <mxPoint x="360" y="270" as="targetPoint" />
          </mxGeometry>
        </mxCell>
        <mxCell id="tp1WzhVr1qO6GO8mGSLT-20" value="" style="endArrow=classic;html=1;rounded=0;exitX=0.502;exitY=1;exitDx=0;exitDy=0;exitPerimeter=0;entryX=0.5;entryY=0;entryDx=0;entryDy=0;" parent="1" source="tp1WzhVr1qO6GO8mGSLT-7" target="tp1WzhVr1qO6GO8mGSLT-1" edge="1">
          <mxGeometry width="50" height="50" relative="1" as="geometry">
            <mxPoint x="219" y="280" as="sourcePoint" />
            <mxPoint x="340" y="280" as="targetPoint" />
          </mxGeometry>
        </mxCell>
        <mxCell id="tp1WzhVr1qO6GO8mGSLT-21" value="&lt;font style=&quot;font-size: 8px;&quot;&gt;HTTP&lt;/font&gt;" style="text;html=1;align=center;verticalAlign=middle;whiteSpace=wrap;rounded=0;" parent="1" vertex="1">
          <mxGeometry x="230" y="238" width="60" height="30" as="geometry" />
        </mxCell>
      </root>
    </mxGraphModel>
  </diagram>
</mxfile>
